<?xml version="1.0" encoding="utf-8"?>
<!-- Generator: Adobe Illustrator 17.0.0, SVG Export Plug-In . SVG Version: 6.00 Build 0)  -->
<!DOCTYPE svg PUBLIC "-//W3C//DTD SVG 1.1//EN" "http://www.w3.org/Graphics/SVG/1.1/DTD/svg11.dtd">
<svg version="1.1" id="Layer_1" xmlns="http://www.w3.org/2000/svg" xmlns:xlink="http://www.w3.org/1999/xlink" x="0px" y="0px"
	 width="50px" height="50px" viewBox="0 0 50 50" enable-background="new 0 0 50 50" xml:space="preserve">
<rect fill="#1F1F1F" width="50" height="50"/>
<g>
	<path fill="#FFFFFF" d="M10.422,11.078V6.226h4.219v4.852H10.422z M10.422,40.585v-24.89h4.219v24.89H10.422z"/>
	<path fill="#FFFFFF" d="M21.063,40.585v-24.89h3.797v3.539c1.828-2.734,4.469-4.102,7.922-4.102c1.5,0,2.879,0.27,4.137,0.809
		s2.199,1.246,2.824,2.121s1.063,1.914,1.313,3.117c0.156,0.781,0.234,2.148,0.234,4.102v15.304h-4.219v-15.14
		c0-1.719-0.164-3.004-0.492-3.855s-0.91-1.531-1.746-2.039s-1.816-0.762-2.941-0.762c-1.797,0-3.348,0.57-4.652,1.711
		s-1.957,3.305-1.957,6.492v13.594H21.063z"/>
</g>
</svg>
